<?xml version="1.0" encoding="utf-8"?>
<!-- Generator: Adobe Illustrator 23.0.6, SVG Export Plug-In . SVG Version: 6.00 Build 0)  -->
<svg version="1.1" id="Layer_1" xmlns="http://www.w3.org/2000/svg" xmlns:xlink="http://www.w3.org/1999/xlink" x="0px" y="0px"
	 viewBox="0 0 96 96" style="enable-background:new 0 0 96 96;" xml:space="preserve">
<style type="text/css">
	.st0{fill:#4D4E53;}
</style>
<path class="st0" d="M87.9,23.8h-3v-2.6c0-1.4-1-2.5-2.2-2.5H42.9c-1.2,0-2.2,1.1-2.2,2.5v14.8c-4.9-0.2-8.8,1-11.5,3.7
	c-0.6,0.5-1.1,1.1-1.5,1.7c0,0-0.1,0-0.1,0h-5.4v-2.4c0-1.1-0.7-2-1.7-2H7.6c-1,0-1.7,0.8-1.7,2v22.1c0,1.1,0.7,2,1.7,2h13
	c0.8,0,1.5-0.7,1.5-1.5v-3.2h5.4c0,0,0,0,0.1,0c2.1,2.8,5.1,4.3,7.1,4.8l6,0v6.2c0,1.4,1,2.5,2.2,2.5h3v2.6c0,1.4,1,2.5,2.2,2.5
	h40.6c0.8,0,1.5-0.7,1.5-1.5V26.3C90.1,24.9,89.2,23.8,87.9,23.8z M79.7,21.6l-9.3,8.1H55.8l-9.6-8.1H79.7z M19.1,59.9H8.9v-20h10.2
	V59.9z M22.1,55.3v-11H26c-1.1,2.7-1.1,5-1.1,5.1c-0.1,2.3,0.3,4.3,0.9,5.9L22.1,55.3L22.1,55.3z M35.2,60.1
	c-1.2-0.3-7.7-2.6-7.3-10.7c0,0,0.1-4.6,3.3-7.7c2.3-2.1,5.7-3.1,10-2.8c0.3,0,0.5,0,0.8,0.1c0,0,0,0,0.1,0c3.9,0.4,7.6,1.6,9.6,2.3
	c-0.3,0.6-0.9,1.4-1.8,2c-1.5,1-3.7,1.1-6.4,0.5l-1.8-0.4l-0.1,1.8c0,0.2-0.2,4.9-6.8,6c-0.8,0.1-1.4,0.9-1.2,1.7
	c0.1,0.8,0.9,1.4,1.7,1.2c2.3-0.4,4.1-1.2,5.4-2.1v8.1L35.2,60.1L35.2,60.1z M43.6,48.6L43.6,48.6c0.3-0.5,0.5-1.1,0.6-1.6
	c2.8,0.4,5.2,0,7.1-1.2c2.9-1.9,3.6-5,3.6-5.1l0.2-1.2L54.1,39c-0.2-0.1-5-2.1-10.4-2.9V23.3l10.7,9.1c0.3,0.2,0.6,0.4,1,0.4h15.6
	c0.4,0,0.7-0.1,1-0.4l10.1-8.8v45.2H43.6V48.6z M48.9,71.8h34.6c0.8,0,1.5-0.7,1.5-1.5V26.7h2.2v47.2H48.9V71.8z M12.9,54.2
	c0.8-0.8,2.1-0.8,2.9,0c0.8,0.8,0.8,2.1,0,2.9s-2.1,0.8-2.9,0C12.1,56.4,12.1,55.1,12.9,54.2z"/>
</svg>
