<?xml version="1.0" encoding="utf-8"?>
<!-- Generator: Adobe Illustrator 23.0.6, SVG Export Plug-In . SVG Version: 6.00 Build 0)  -->
<svg version="1.1" id="Layer_1" xmlns="http://www.w3.org/2000/svg" xmlns:xlink="http://www.w3.org/1999/xlink" x="0px" y="0px"
	 viewBox="0 0 96 96" style="enable-background:new 0 0 96 96;" xml:space="preserve">
<style type="text/css">
	.st0{fill:#4D4E53;}
</style>
<path class="st0" d="M87.8,73.3L77.2,61.2c3.1-3.4,5.1-8,5.1-13c0-5.4-2.2-10.2-5.8-13.7V13c0-0.8-0.7-1.5-1.5-1.5H36.2
	c-0.4,0-0.8,0.2-1,0.4L20,26.8c-0.3,0.3-0.5,0.7-0.5,1.1l0.2,55.3c0,0.8,0.7,1.5,1.5,1.5h53.7c0.8,0,1.5-0.7,1.5-1.5v-11l4.1,6.3
	l0.1,0.1c0.6,0.8,1.5,1.3,2.5,1.4c0.2,0,0.3,0,0.5,0c0.8,0,1.6-0.3,2.3-0.8l0.9-0.7c0.8-0.6,1.4-1.4,1.5-2.4
	C88.6,75.1,88.3,74.1,87.8,73.3z M79.2,48.2c0,8.9-7.3,16.2-16.2,16.2s-16.2-7.3-16.2-16.2S54.1,32,63,32S79.2,39.3,79.2,48.2z
	 M35.2,16.1v10.7H24.3L35.2,16.1z M73.4,67.7v14H22.7l-0.2-51.9h14.2c0.8,0,1.5-0.7,1.5-1.5V14.5h35.2v17.6c-3-1.9-6.6-3.1-10.4-3.1
	c-5.3,0-10,2.1-13.5,5.6c-0.1,0-0.3-0.1-0.4-0.1H29.9c-0.8,0-1.5,0.7-1.5,1.5c0,0.8,0.7,1.5,1.5,1.5h17.2c-1.8,2.7-2.9,5.9-3.2,9.3
	h-14c-0.8,0-1.5,0.7-1.5,1.5s0.7,1.5,1.5,1.5h14c0.3,3.3,1.4,6.5,3.2,9.1H29.9c-0.8,0-1.5,0.7-1.5,1.5s0.7,1.5,1.5,1.5h19.7
	c3.5,3.4,8.2,5.5,13.4,5.5c3.2,0,6.2-0.8,8.8-2.2L73.4,67.7C73.4,67.7,73.4,67.7,73.4,67.7z M85.1,76.1l-1,0.8
	c-0.2,0.2-0.4,0.2-0.5,0.2c-0.2,0-0.4-0.1-0.5-0.3l-8.6-13.2c0.2-0.1,0.4-0.3,0.6-0.4l10.4,11.9C85.5,75.4,85.5,75.9,85.1,76.1z"/>
</svg>
